<?xml version="1.0" encoding="utf-8"?>
<svg version="1.1" xmlns="http://www.w3.org/2000/svg" xmlns:xlink="http://www.w3.org/1999/xlink" x="0px" y="0px"
	 width="42px" height="174px" viewBox="0 0 42 174" style="enable-background:new 0 0 42 174;" xml:space="preserve">

  <path class="Bottle__liquid" d="M42.2,60.7c-3,0-5.7,1.3-7.6,2.6c-1.4,0.7-4.2,1.2-8-0.8c-5.1-3.5-10.3-1.3-13.3,0.8
    c-1.4,0.7-4.2,1.2-8-0.8C0.3,59.1-4.9,61.3-8,63.3c-1.4,0.7-4.2,1.2-8-0.8c-5.1-3.5-10.3-1.3-13.3,0.8c-1.4,0.7-4.2,1.2-8-0.8
    c-7.3-5-14.9,1.8-16,2.8h-0.1v109.2h95.6"
  />

  <path class="Bottle__fill" d="M14,0.9c4.6-1.4,9.3-1.1,14-0.2c1.8,4,2.3,7.9,1.2,11.9c-0.3,0.9-0.3,2-0.3,3c0,10.3,0,20.7,0,31
    c0,0.8,0.2,1.6,0.3,2.7c1.7,0.7,3.3,1.4,4.9,2.2c5.4,2.7,8,6.8,8,13.2c-0.2,30.3-0.1,60.7-0.1,91c0,5.3,0,10.6,0,15.4
    c-2.5,3.1-5.6,3.4-8.5,3.4c-8.3,0.1-16.7,0.1-25,0c-2.8,0-5.7-0.4-8.2-3c-0.1-3.1-0.4-6.6-0.4-10.1c0-31.8,0.1-63.6,0.1-95.5
    c0-8.7,1.9-11.8,9.9-15.3c0.9-0.4,1.8-0.8,3-1.3c0.1-1.5,0.3-3,0.3-4.4c0-9.3,0-18.7,0-28c0-1.3,0.1-2.7-0.3-4
    C11.8,8.9,12.4,5.1,14,0.9z"
  />
  <path class="Bottle__stroke" d="M42.1,64.7c0-6.4-2.6-10.5-8-13.2c-1.6-0.8-3.2-1.5-4.9-2.2c-0.1-1.1-0.3-1.9-0.3-2.7
    c0-10.3,0-20.7,0-31c0-1,0-2.1,0.3-3c1.1-4,0.6-7.9-1.2-11.9c-4.7-0.9-9.4-1.2-14,0.2c-1.6,4.2-2.2,8-1.1,12c0.4,1.3,0.3,2.7,0.3,4
    c0,9.3,0,18.7,0,28c0,1.4-0.2,2.9-0.3,4.4c-1.2,0.5-2.1,0.9-3,1.3C1.9,54.1,0,57.2,0,65.9c0,31.9-0.1,63.7-0.1,95.5
    c0,3.5,0.3,7,0.4,10.1c2.5,2.6,5.4,3,8.2,3c8.3,0.1,16.7,0.1,25,0c2.9,0,6-0.3,8.5-3.4c0-4.8,0-10.1,0-15.4
    C42,125.4,41.9,95,42.1,64.7z M39,133c0,7.6,0,15.2,0,22.7v14.2c-1.4,1.3-3.1,1.6-5.5,1.6c-4.2,0-8.3,0.1-12.5,0.1
    c-4.2,0-8.3,0-12.5-0.1c-2.1,0-3.8-0.2-5.3-1.4c0-0.8-0.1-1.6-0.1-2.4c-0.1-2.1-0.2-4.2-0.2-6.3c0-15.9,0-31.8,0-47.7
    C3,97.8,3,81.9,3,65.9c0-7.6,1.3-9.6,8.1-12.6c0.9-0.4,1.8-0.8,3-1.3l1.7-0.7l0.1-1.9c0-0.5,0.1-1,0.1-1.5c0.1-1,0.2-2.1,0.2-3.1
    v-28l0-0.6c0-1.2,0-2.7-0.4-4.3c-0.7-2.6-0.6-5.3,0.5-8.6c1.4-0.3,2.9-0.5,4.5-0.5c1.5,0,3.2,0.1,5,0.4c1.1,2.9,1.2,5.6,0.5,8.4
    c-0.4,1.3-0.4,2.7-0.4,3.9v31c0,0.7,0.1,1.3,0.2,1.9c0,0.3,0.1,0.7,0.1,1.1l0.2,1.8l1.7,0.7c1.9,0.8,3.3,1.4,4.7,2.1
    c4.4,2.2,6.3,5.4,6.3,10.5C39,87.4,39,110.6,39,133z"
  />
</svg>
