<?xml version="1.0" standalone="no"?>
<!DOCTYPE svg PUBLIC "-//W3C//DTD SVG 20010904//EN"
 "http://www.w3.org/TR/2001/REC-SVG-20010904/DTD/svg10.dtd">
<svg version="1.0" xmlns="http://www.w3.org/2000/svg"
 width="500.000000pt" height="500.000000pt" viewBox="0 0 500.000000 500.000000"
 preserveAspectRatio="xMidYMid meet">
<metadata>
Created by potrace 1.11, written by Peter Selinger 2001-2013
</metadata>
<g transform="translate(0.000000,500.000000) scale(0.100000,-0.100000)"
fill="#000000" stroke="none">
<path d="M730 4357 c-31 -16 -38 -52 -12 -66 10 -5 79 -11 152 -12 148 -1 202
-13 257 -54 52 -40 88 -104 129 -229 83 -251 179 -509 424 -1136 61 -157 145
-375 187 -485 84 -224 107 -285 151 -400 17 -44 47 -125 67 -180 20 -55 47
-127 60 -160 70 -181 252 -675 296 -805 99 -291 123 -279 260 125 39 116 118
347 174 515 57 168 156 458 220 645 64 187 121 351 125 365 8 25 76 220 254
730 53 151 100 284 105 295 5 11 46 126 92 255 111 317 158 414 219 457 12 8
49 22 83 29 56 14 94 18 232 28 67 5 85 14 85 41 0 56 15 55 -560 55 -467 0
-530 -2 -544 -16 -9 -8 -16 -24 -16 -34 0 -38 37 -48 198 -54 93 -3 163 -10
180 -18 83 -40 69 -152 -73 -604 -30 -94 -73 -222 -95 -285 -23 -63 -43 -121
-45 -129 -2 -8 -11 -35 -20 -60 -24 -67 -88 -251 -162 -465 -87 -253 -247
-700 -272 -756 l-19 -44 -12 30 c-16 41 -42 109 -158 415 -169 450 -401 1105
-548 1550 -88 267 -90 272 -85 311 1 12 73 45 116 53 17 3 71 8 120 11 152 8
209 16 233 31 26 17 28 27 6 48 -14 14 -109 16 -897 16 -689 0 -887 -3 -907
-13z"/>
</g>
</svg>
